<svg width="28" height="28" viewBox="0 0 28 28" fill="none" xmlns="http://www.w3.org/2000/svg">
<path d="M8.18746 22.8125H10.25V19.8125H13.2125V17.75H10.25V14.7875H8.18746V17.75H5.18746V19.8125H8.18746V22.8125ZM15.5375 21.725H22.8125V19.6625H15.5375V21.725ZM15.5375 17.9375H22.8125V15.875H15.5375V17.9375ZM17.075 12.3875L19.2125 10.25L21.3125 12.3875L22.775 10.925L20.6375 8.75002L22.7375 6.65002L21.3125 5.18752L19.2125 7.28752L17.075 5.18752L15.6125 6.65002L17.75 8.75002L15.65 10.925L17.075 12.3875ZM5.56246 9.80002H12.8375V7.73752H5.56246V9.80002ZM3.64996 27.1625C2.87496 27.1625 2.21246 26.8875 1.66246 26.3375C1.11246 25.7875 0.837463 25.125 0.837463 24.35V3.65002C0.837463 2.87502 1.11246 2.21252 1.66246 1.66252C2.21246 1.11252 2.87496 0.837524 3.64996 0.837524H24.35C25.125 0.837524 25.7875 1.11252 26.3375 1.66252C26.8875 2.21252 27.1625 2.87502 27.1625 3.65002V24.35C27.1625 25.125 26.8875 25.7875 26.3375 26.3375C25.7875 26.8875 25.125 27.1625 24.35 27.1625H3.64996ZM3.64996 24.35H24.35V3.65002H3.64996V24.35Z" fill="white"/>
</svg>
